<?xml version="1.0" encoding="UTF-8" standalone="no"?>
<svg
   xmlns:dc="http://purl.org/dc/elements/1.1/"
   xmlns:cc="http://creativecommons.org/ns#"
   xmlns:rdf="http://www.w3.org/1999/02/22-rdf-syntax-ns#"
   xmlns:svg="http://www.w3.org/2000/svg"
   xmlns="http://www.w3.org/2000/svg"
   xmlns:sodipodi="http://sodipodi.sourceforge.net/DTD/sodipodi-0.dtd"
   xmlns:inkscape="http://www.inkscape.org/namespaces/inkscape"
   version="1.1"
   x="0px"
   y="0px"
   viewBox="0 0 48.632298 67.395981"
   enable-background="new 0 0 100 100"
   xml:space="preserve"
   id="svg84"
   sodipodi:docname="floorball.svg"
   width="48.632298"
   height="67.395981"
   inkscape:version="0.92.2 (5c3e80d, 2017-08-06)"><metadata
     id="metadata90"><rdf:RDF><cc:Work
         rdf:about=""><dc:format>image/svg+xml</dc:format><dc:type
           rdf:resource="http://purl.org/dc/dcmitype/StillImage" /></cc:Work></rdf:RDF></metadata><defs
     id="defs88" /><sodipodi:namedview
     pagecolor="#ffffff"
     bordercolor="#666666"
     borderopacity="1"
     objecttolerance="10"
     gridtolerance="10"
     guidetolerance="10"
     inkscape:pageopacity="0"
     inkscape:pageshadow="2"
     inkscape:window-width="1920"
     inkscape:window-height="1016"
     id="namedview86"
     showgrid="false"
     inkscape:zoom="1.888"
     inkscape:cx="15.782433"
     inkscape:cy="-13.445"
     inkscape:window-x="0"
     inkscape:window-y="27"
     inkscape:window-maximized="1"
     inkscape:current-layer="svg84" /><g
     id="g78"
     transform="translate(-25.517567,-15.359022)"><path
       d="m 35.112,62.195 c 3.214,0 5.83,-2.616 5.83,-5.831 0,-3.214 -2.615,-5.829 -5.83,-5.829 -3.213,0 -5.828,2.615 -5.828,5.829 0,3.215 2.614,5.831 5.828,5.831 z m 0,-9.459 c 2.001,0 3.629,1.627 3.629,3.628 0,2.002 -1.628,3.63 -3.629,3.63 -2,0 -3.627,-1.628 -3.627,-3.63 -10e-4,-2.001 1.627,-3.628 3.627,-3.628 z"
       id="path74"
       inkscape:connector-curvature="0"
       style="fill:#000000" /><path
       d="m 73.416,15.422 c -0.571,-0.202 -1.201,0.098 -1.404,0.67 L 52.74,70.602 c -3.565,0.569 -7.124,0.857 -10.857,0.857 -2.835,0 -5.324,-0.162 -7.324,-0.292 -1.459,-0.095 -2.72,-0.177 -3.768,-0.177 -1.441,0 -2.894,0.127 -3.756,1.047 -1.311,1.399 -1.795,3.094 -1.364,4.773 0.555,2.158 2.604,4.055 5.349,4.95 1.882,0.614 5.283,0.995 8.875,0.995 2.322,0 7.926,-0.175 9.798,-1.794 2.442,-2.108 3.571,-5.696 3.586,-5.758 l 1.15,-2.835 c 0.018,-0.037 0.044,-0.067 0.058,-0.106 l 19.6,-55.437 c 0.202,-0.572 -0.099,-1.2 -0.671,-1.403 z M 51.208,74.466 c -0.002,0.007 -0.061,0.193 -0.173,0.489 -1.097,0.182 -2.158,0.322 -3.199,0.441 l 0.734,-2.051 c 1.084,-0.101 2.164,-0.217 3.241,-0.369 z m -9.893,6.066 0.91,-2.542 c 0.771,-0.018 1.565,-0.052 2.382,-0.102 l -0.895,2.499 c -0.724,0.068 -1.517,0.118 -2.397,0.145 z m -4.758,-0.096 0.9,-2.512 c 0.772,0.043 1.583,0.07 2.425,0.083 l -0.908,2.538 c -0.83,-0.017 -1.641,-0.053 -2.417,-0.109 z m -4.822,-0.757 0.788,-2.244 c 0.812,0.119 1.703,0.227 2.659,0.318 l -0.879,2.454 c -1.033,-0.142 -1.919,-0.32 -2.568,-0.528 z m 9.705,-6.026 -0.767,2.142 C 39.829,75.792 39.018,75.772 38.24,75.737 l 0.765,-2.134 c 0.779,0.027 1.587,0.045 2.435,0.05 z m 1.584,2.104 0.763,-2.13 c 0.799,-0.02 1.593,-0.054 2.381,-0.1 l -0.751,2.098 c -0.82,0.061 -1.617,0.105 -2.393,0.132 z m -6.318,-2.257 -0.75,2.091 c -0.968,-0.083 -1.858,-0.185 -2.681,-0.298 l 0.688,-1.959 c 0.152,0.01 0.297,0.019 0.454,0.029 0.699,0.045 1.477,0.093 2.289,0.137 z m -5.915,-0.309 c 0.274,0 0.572,0.007 0.884,0.019 l -0.61,1.736 c -1.326,-0.244 -2.319,-0.486 -2.969,-0.662 0.144,-0.251 0.317,-0.499 0.544,-0.741 0.099,-0.106 0.506,-0.352 2.151,-0.352 z m -2.9,3.321 c 0.618,0.162 1.432,0.354 2.432,0.548 l -0.583,1.661 c -0.912,-0.615 -1.56,-1.385 -1.849,-2.209 z m 20.363,2.786 c -0.297,0.257 -1.016,0.52 -2.081,0.74 l 0.838,-2.343 c 0.925,-0.091 1.874,-0.206 2.846,-0.344 -0.429,0.694 -0.962,1.395 -1.603,1.947 z"
       id="path76"
       inkscape:connector-curvature="0"
       style="fill:#000000" /></g></svg>